<?xml version="1.0" encoding="utf-8"?>
<!DOCTYPE svg PUBLIC "-//W3C//DTD SVG 1.1//EN" "http://www.w3.org/Graphics/SVG/1.1/DTD/svg11.dtd">
<svg version="1.1" id="Layer_1" xmlns="http://www.w3.org/2000/svg" xmlns:xlink="http://www.w3.org/1999/xlink" x="0px" y="0px"
	 viewBox="0 0 2250 1865" enable-background="new 0 0 2250 1865" xml:space="preserve">
<path d="M1835.39,19.35c10.31-0.88,21.81-1.13,30.26,5.86c-3.19,3.6-6.15,7.82-10.81,9.6c-2.53,1.02-4.79,2.54-7.02,4.05
	c-3,2.05-6.61,2.78-9.96,4.01c-3.5,1.18-6.12,3.97-9.51,5.34c-3.26,1.33-6.47,2.78-9.42,4.68c-4.34,2.74-9.24,4.53-13.31,7.69
	c-3.45,2.62-7.44,4.44-10.69,7.32c-4.22,3.44-8.01,7.34-12.2,10.8c-5.98,6.29-10.76,13.63-14.81,21.28
	c-5.74,11.89-8.68,24.96-10.22,38.01c-0.24,12.69,0.63,25.38,1.81,38.01c0.78,9.72,4.11,18.98,7.18,28.17
	c3.88,10.4,7.29,21.22,13.8,30.37c9.37,12.74,20.06,24.56,32.2,34.73c15.71,11.64,33.31,20.25,50.35,29.72
	c12.34,6.62,24.93,12.78,37.02,19.87c5.48,2.25,9.92,6.31,15.25,8.86c4.31,2.17,7.96,5.38,12.14,7.78c2.49,1.45,5.01,2.92,7.18,4.86
	c3.96,3.52,8.9,5.66,12.9,9.14c4.49,3.93,10.02,6.48,14.45,10.52c3.54,3.25,8.41,4.73,11.68,8.33c0.88,1.85,1.21,4.02,0.93,6.06
	c-1.75,2.24-5.04,1.83-7.54,1.84c-11.01-0.86-22.05-1.27-33.05-2.16c-30.22-3.31-60.86-8.07-91.18-3.12
	c-18.98,2.75-37.28,8.82-55.09,15.75c-9,4.15-18.2,8.02-26.45,13.56c-5.9,4.32-11.97,8.75-16.14,14.87
	c-5.72,7.8-10.1,17.42-8.82,27.31c0.44,9.08,3.08,18.29,8.71,25.54c11.24,17.07,27.41,29.93,42.01,43.97
	c15.5,14.17,29.46,29.9,43.48,45.5c3.49,2.93,5.3,7.18,6.34,11.53c-2.53,2.13-6,2.8-8.89,0.95c-3.64-2.12-7.8-2.74-11.94-2.5
	c-15.63-0.2-31.25-0.06-46.86-0.67c-15.05-0.71-30.12-0.65-45.16,0.05c-8.51,0.62-17.07,1-25.45,2.64
	c-23.82,4.22-46.35,13.27-69.24,20.76c-4.46,1.52-9,2.85-13.26,4.85c-9.78,5.34-19.75,10.32-29.74,15.24
	c-6.63,3.35-13.6,6.06-19.92,10c-17.61,10.72-35.3,21.32-52.57,32.59c-15.12,9.86-29.32,21.1-42.67,33.25
	c-14.05,13.69-27.66,28.05-38.5,44.48c-11.29,15.94-20.3,33.66-25.43,52.55c-1.04,6.26-2.48,12.45-3.21,18.76
	c-0.76,9.43-2.21,18.81-4.08,28.08c0.42,8.99,1.74,17.93,2.11,26.94c1.79,22.82-0.97,45.68-4.81,68.14
	c-5.26,23.43-3.14,47.86-9.01,71.18c-2.25,13.31-7.45,25.89-12.87,38.17c-0.95,2.46-0.78,5.31-2.35,7.54
	c-2.65,4.24-5.01,8.65-7.12,13.18c10.22-2.02,20.18-5.59,30.66-6.06c-0.25,0.62-0.74,1.85-0.99,2.46c-3.24,1.83-6.93,2.79-9.97,5
	c-6.02,4.14-13.31,7.3-17.42,13.56c-1.02,6.58-6.29,11.94-5.58,18.89c-0.4,2.66,2.49,3.77,4.16,5.24
	c10.6,7.31,21.62,14.11,31.36,22.59c4.31,3.47,7.97,7.64,12.05,11.36c8.1-1.28,15.56-5.31,23.81-6.12c3.54-1.02,7.3,0.95,10.75-0.57
	c4.77-1.75,9.2-4.57,14.31-5.31c11.97-1.87,24.16-2.51,36.27-1.64c-1.41,1.58-3.15,2.93-5.36,2.94c-8.49,0.74-16.35,4.18-24.2,7.23
	c-5.31,2.95-10.83,5.8-15.17,10.14c1.51,0.33,3.06,0.66,4.62,0.98c-2.95,2.09-6.5,3.67-8.43,6.88c-4.22,6.64-5.64,14.54-7.34,22.1
	c2.9,3,5.76,6.06,8.68,9.07c3.24,3.39,5.78,7.47,9.5,10.41c2.3,0.84,4.85,0.59,7.27,1.09c-1.29,1.35-3.05,1.94-4.78,2.45
	c3.92,3.69,6.05,8.66,8.59,13.3c5.14,1.32,10.51,1.54,15.72,2.62c7.8,1.6,15.79,0.7,23.66,0.25c6.89-0.2,12.96-4.15,19.8-4.7
	c10.29-1.18,20.6-2.66,30.98-2.52c-1.88,3.24-5.75,3.57-8.99,4.48c-4.39,1.11-8.41,3.24-12.57,4.96c-4.4,1.7-9.06,3.19-12.68,6.32
	c-2.93,2.8-5,6.34-7.56,9.46c-3.25,4.41-7.08,8.48-9.49,13.45c-1.23,4.73-2.32,9.51-3.8,14.18c-2.49,7.12,0.49,14.9,5.11,20.46
	c3.66,4.35,6.7,9.26,10.73,13.31c4.98,2.21,10.38,0.27,15.55,0.13c6.68-0.18,13.19-2.07,19.87-2.27c6.62-0.4,13.3,0.62,19.87-0.57
	c4.88-0.64,9.46-2.68,14.39-3.04c9.04-0.7,18-2.61,27.1-2.34c-2.41,2.44-5.64,3.65-8.89,4.46c-5.07,1.3-9.25,4.56-13.9,6.79
	c-3.58,1.89-7.66,3.48-9.86,7.11c-4.81,7.17-10.32,13.92-14.6,21.44c-1.82,6.39-2.96,13.15-2.63,19.83
	c1.4,4.26,3.18,8.43,4.94,12.58c4.9,6.04,12.25,10,19.98,10.88c5.29,0.82,10.79,1.68,16.05,0.09c9.33-2.65,19.12-3.02,28.47-5.59
	c9.77-2.37,19.73-3.93,29.78-4.56c-1.64,3.96-6.1,4.38-9.59,5.8c-3.25,1.27-6.43,2.75-9.43,4.53c-4.04,2.32-6.13,6.67-8.44,10.52
	c-2.51,4.45-5.77,8.49-7.84,13.2c-1.29,3.93-1.78,8.08-2.9,12.07c-0.65,1.74,0.31,3.47,0.81,5.14c1.2,3.33,2.3,6.78,4.29,9.77
	c3.35,4.63,8.76,6.96,13.76,9.35c7.53,3.65,16.17,2.21,24.13,1.04c5.51-0.73,10.77-2.88,16.36-3.12c9.06-1.16,18.48,1.69,27.28-1.57
	c2.14-1.75,4.05-3.85,5.63-6.12c-0.57-3.33-2.23-6.33-3.64-9.34c-2.08,1.76-4.11,3.61-6.36,5.15c0.94-2.95,2.59-5.57,4.49-7.98
	c-1.44-2.7-2.85-5.4-4.22-8.11c-1.33,1.14-2.61,2.32-3.89,3.51c0.68-2.41,1.62-4.75,2.08-7.21c-0.55-3.57-1.83-6.98-2.66-10.47
	c-1.22,0.89-2.4,1.81-3.6,2.71c0.55-2.71,1.66-5.33,1.71-8.11c-0.9-3.58-2.49-6.93-3.67-10.4c-1.21,0.85-2.4,1.7-3.57,2.55
	c0.48-3.36,1.89-6.73,1.09-10.15c-0.84-4.46-2.41-8.73-3.45-13.12c-1.33,0.95-2.65,1.93-3.95,2.91c0.81-2.7,2.04-5.28,2.56-8.04
	c-0.06-5.05-1.35-10-1.44-15.04c-1.26,1.73-2.57,3.44-4.19,4.86c0.5-3.76,2.66-7.02,3.36-10.69c0.06-5.12-0.48-10.22-1.02-15.29
	c-1.74,2.72-3.57,5.41-5.78,7.78c0.42-3.16,1.22-6.32,2.89-9.06c0.87-1.74,2.26-3.37,2.16-5.42c0.06-5.01-0.04-10.02-0.09-15.01
	c-3.4,2.33-6.25,5.3-9.09,8.26c0.34-5.65,4.31-9.93,8.31-13.5c-0.37-3.81-0.79-7.61-1.63-11.33c-3.88,2.12-7.29,4.93-10.64,7.78
	c0.99-3.21,2.52-6.36,5.14-8.56c1.61-1.7,3.82-2.91,5.04-4.95c0.05-4.02-0.13-8.05-0.27-12.06c-5.41,1.98-9.31,6.23-13.61,9.84
	c2.07-7.05,8.18-11.68,13.77-15.93c0.32-5.59,1.48-11.05,2.6-16.5c-6.93,2.28-12.46,7.02-18.33,11.11
	c3.31-7.1,9.99-11.74,16.26-16.03c1.52-1.2,3.68-2.09,4.14-4.17c1.45-4.95,2.18-10.08,2.49-15.21c-5.8,2.52-11.49,5.47-16.07,9.9
	c-4.25,3.63-7.2,8.53-11.59,11.98c5.56-13.34,17.44-22.48,29.34-29.93c1.29-7.99,3.04-15.88,4.46-23.84
	c-9.98,5.57-19.58,12.31-26.59,21.46c-3.82,4.33-6.08,9.87-10.41,13.76c2.76-6.82,7.06-12.92,11.38-18.83
	c7.25-9.2,16.97-15.94,26.55-22.46c1.26-0.84,1.7-2.36,2.27-3.67c2.22-5.85,4.26-11.76,6.23-17.69
	c-11.53,3.31-22.46,8.71-32.16,15.77c-7.35,5.38-12.67,12.89-19.39,18.92c3.62-7.95,10.08-14.12,16.14-20.24
	c10.94-9.94,24.51-16.27,37.93-22.11c1.9-0.73,2.68-2.73,3.61-4.37c1.77-3.45,3.5-6.92,5.38-10.32c-11.94,1.83-24.4,2.03-35.62,6.94
	c-10.58,3.55-20.24,9.4-29.14,16.06c-2.74,2.03-5.4,4.24-8.56,5.57c2.15-3.48,5.32-6.14,8.45-8.71
	c8.41-6.92,17.42-13.41,27.66-17.33c8.25-4.08,17.34-5.82,26.25-7.85c5-1.45,10.19-2.01,15.33-2.84c2.06-0.09,3.08-2.05,4.23-3.47
	c2.4-3.42,4.86-6.83,7.78-9.84c-8.68-1.98-17.61-2.02-26.45-2.28c-18.91,0.16-36.88,7.06-53.57,15.4c0.09-0.56,0.28-1.7,0.38-2.27
	c11.32-7.31,23.48-13.49,36.44-17.25c7.01-1.06,13.81-3.61,20.98-3.54c7.66-0.11,15.33-0.68,23.01-0.32c2.6,0.03,5.25,0.3,7.87-0.08
	c3.58-2.44,6.54-5.66,9.9-8.38c-8.44-3.83-17.51-5.77-26.41-8.12c-5.36-1.33-10.91-1.26-16.34-1.97
	c-13.61-0.63-26.82,3.25-40.14,5.29c2.3-2.48,5.64-3.4,8.75-4.45c5.74-1.75,11.37-4.01,17.38-4.75c4.98-0.55,9.89-1.87,14.94-1.7
	c7.49,0.14,15.08-0.41,22.45,1.31c9.26,1.4,18.45,3.19,27.49,5.68c3.74,1.56,6.43-2.34,9.49-3.82c1.34-1.31,4.36-1.71,4.25-3.94
	c-6.72-4.3-14.08-7.45-21.26-10.9c-10.86-4.48-22.55-7.04-34.32-7.15c-3.6-0.22-7.54,0.56-10.68-1.63
	c10.79-1.57,21.85-1.67,32.61,0.25c14.79,2.96,28.68,9.19,42.2,15.73c4.2-2.81,8.77-4.97,13.53-6.69
	c-8.16-8.01-17.15-15.59-27.82-19.99c-5.36-2.47-11.29-3.39-16.51-6.15c6.47-0.32,12.68,2.07,18.75,4.01
	c11.63,4.3,21.52,12.04,31.15,19.67c3.59-1.06,7.21-2.02,10.83-3.03c-4.67-7.02-10.07-13.86-17.43-18.21
	c-2.41-1.38-4.6-3.05-6.59-4.94c10.87,3.34,19.66,11.43,26.11,20.58c4.71-5.53,8.65-11.78,14.3-16.46
	c10.24-8.13,20.13-16.77,31.19-23.82c7.78-5.06,14.47-11.56,21.89-17.11c2.6-2.06,5.71-3.32,8.8-4.49
	c0.48,7.71-4.59,14.22-6.36,21.49c6.63-3.42,12.42-8.2,19.1-11.53c17.87-9.64,34.64-21.54,48.81-36.14
	c7.52-6.86,13.96-14.8,20.02-22.96c3.83-6.09,8.67-11.49,12.32-17.71c5.76-9.23,12.16-18.08,17.29-27.69
	c5.41-9.34,10.27-18.98,15.6-28.37c2.42-4.05,3.62-8.79,6.49-12.57c2.82-1.48,5.46,2.52,5.14,5.16
	c-0.72,16.72-4.87,33.03-8.79,49.23c-2.61,11.32-6.04,22.44-8.36,33.84c-1.14,5.41-4.56,11.72-0.52,16.71
	c5.49,0.17,11-0.28,16.5,0.1c0.23,5.33-5.41,7.27-8.83,10.13c-6.19,4.86-13.81,7.31-20.23,11.8c-4.48,3.02-6.1,8.47-9.64,12.33
	c-2.86,3.24-6.07,6.14-9.18,9.14c0.23,0.54,0.7,1.63,0.93,2.17c5.4,0.69,10.83,1.23,16.29,1.55c2.47,0.48,5.6,0.86,7.03,3.26
	c-0.89,3.57-4.65,4.94-7.6,6.4c-15.2,6.8-32.21,9.45-46.36,18.58c-3.39,2.86-8.3,5.04-9.09,9.86c-1.65,5.5-6.77,8.79-11.01,12.2
	c0.06,0.76,0.19,2.27,0.25,3.03c13.7-0.15,27.01-3.82,40.56-5.39c7.1-0.84,13.86-3.39,20.94-4.3c-0.98,3.85-4.75,5.57-7.86,7.4
	c-9.01,4.73-17.38,10.84-27.29,13.65c-7.91,3.71-16.46,5.55-24.74,8.21c-13.23,3.48-26.44,7.33-40.04,9.11
	c-5.61,0.68-11.07,2.48-16.75,2.51c-5.72,0.21-11.44-1.05-17.11-0.07c-3.54,0.49-6.48,2.85-10.04,3.23
	c-5.86,0.81-11.03,3.83-16.53,5.77c-9.35,3-18.17,8.01-25.32,14.76c-3.89,2.95-8.3,5.07-12.4,7.66c-3.47,2.23-5.6,5.85-7.63,9.31
	c-2.39,4.16-6.71,6.84-8.8,11.2c-3.17,6.36-6.35,12.74-10.44,18.57c-4.98,8.95-6.58,19.26-8.16,29.25
	c-1.92,11.53-8.04,22.11-8.4,33.93c-0.48,8.7,0.54,17.4,0.25,26.11c-0.17,9.85,1.16,19.62,2.22,29.39
	c1.4,9.33,0.83,18.87,2.69,28.16c2,9.82,3.09,19.9,6.76,29.31c3.52,11.33,9.76,21.49,14.91,32.11c2.87,6.14,7.17,11.42,11.21,16.83
	c0.76-2.06,1.52-4.1,2.37-6.11c0.16,4.18-0.88,9.25,3.24,11.92c0.38-2.58,0.77-5.22,2.43-7.32c0.22,3.4-0.2,6.84,0.17,10.25
	c0.94,1.33,2.12,2.48,3.28,3.68c0.6-3.44,0.99-6.9,1.58-10.33c1.98,4.09,0.89,8.56,1.01,12.89c0.98,1.73,2.53,3.06,3.93,4.49
	c0.68-4.23,1.51-8.41,2.35-12.6c2.25,4.84,0.19,10.07,0.27,15.09c0.98,0.84,2.08,1.6,3.18,2.39c1.4-4.69,1.97-9.57,2.91-14.35
	c2.42,4.9,0.43,10.2,0.3,15.33c-0.28,1.55,1.4,2.17,2.33,3.09c1.78-4.75,1.55-10.03,3.77-14.61c1.07,5.81-0.47,11.66-0.15,17.51
	c1.35,0.73,2.41,0.44,3.17-0.87c1.65-4.05,2.03-8.47,2.59-12.76c3.06,4.66,0.33,10.17,0.58,15.27c0.38,1.4,1.81,2.22,2.73,3.33
	c1.93-5.3,2.4-10.95,3.68-16.41c2.33,5.85-0.24,12.13,0.31,18.18c0.45,0.15,1.36,0.44,1.82,0.58c2.48-4.89,2.31-10.53,3.97-15.67
	c0.62,1.39,1.41,2.84,1.06,4.44c-0.52,4.8-0.8,9.63-1.35,14.44c1.19-0.07,2.41-0.1,3.65-0.12c1.23-5.19,2.01-10.47,3.22-15.66
	c1.98,5.59,0.27,11.45,0,17.15c1.1,1.45,2.87,2.19,4.42,3.13c1.01-5.5,2.4-10.93,2.83-16.51c3.27,5.76,0.4,12.38,0.32,18.54
	c0.75,0.3,2.25,0.91,2.99,1.22c1.78-4.55,2.63-9.36,2.96-14.2c0.44-0.33,1.31-1,1.75-1.33c0.63,5.11-0.37,10.18-0.71,15.27
	c-0.17,1.61,1.14,2.82,1.84,4.18c2.58-5.61,2.13-11.99,4.43-17.64c1.87,5.64-0.13,11.43-0.2,17.16c-0.16,1.73,2,2.23,3.02,3.29
	c1.82-5.6,2.51-11.45,3.65-17.21c2.37,5.48,0.25,11.28,0.34,16.95c0.58,1.61,1.91,2.83,2.89,4.26c1.85-6.32,2.89-12.81,4.13-19.25
	c2.5,6.59-0.06,13.48,0.04,20.24c0.46,0.16,1.39,0.47,1.85,0.62c3.18-5.42,2.58-11.98,4.36-17.86c2.07,6.26,0.37,12.84,0.06,19.23
	c0.85,0.97,2.46,0.82,3.51,0.16c1.89-5.33,2.07-11.05,3.51-16.48c2.11,6.59,0.03,13.48,0.03,20.21c1.38,0.55,2.8,1.15,4.22,1.74
	c1.85-6.16,2.26-12.6,3.68-18.85c1.99,6.16,0.68,12.66,0.2,18.95c0.58,1.13,1.33,2.18,2.24,3.16c2.05-4.39,3.27-9.13,3.57-13.96
	c0.02-1.95,0.77-3.73,1.64-5.42c1.13,7.2-0.13,14.44-0.44,21.64c0.84,0.18,2.2,0.25,2.52-0.84c2.31-5.6,2.44-11.8,3.68-17.67
	c2.76,6.33-0.16,13.21,0.41,19.82c0.75,0.81,1.92,1.05,2.93,1.56c1.85-6.02,2.73-12.25,3.96-18.4c2.07,5.64,0.66,11.56,0.26,17.33
	c-0.35,1.89,1.4,3.03,2.42,4.39c3.55-5.72,2.82-12.67,5.18-18.72c1.5,6.91-0.17,13.94,0.25,20.93c0.54-0.05,1.61-0.13,2.14-0.17
	c1.94-5.78,2.46-11.88,3.5-17.85c3.04,6.07,0.01,12.89,0.6,19.3c1.09,0.65,2.22,1.26,3.41,1.84c0.81-5.49,2.64-10.82,2.65-16.41
	c0.56-0.75,1.15-1.47,1.75-2.19c0.18,6.37,0.34,12.78-0.85,19.07c1.17,0.79,2.35,1.64,3.62,2.37c1.2-0.32,1.22-1.69,1.61-2.63
	c1.26-4.86,1.64-9.9,2.9-14.76c2.59,6.06-0.03,12.77,0.66,19.12c0.88,0.38,1.83,0.82,2.77,1.25c0.66-4.28,2.2-8.38,2.5-12.71
	c0.13-2.28,0.47-4.61,1.95-6.43c1.44,7.03-0.52,14.15-0.28,21.25c2-0.93,3.45-2.57,3.57-4.85c0.9-4.63,1.53-9.3,2.41-13.93
	c2.43,6.64,0.39,13.71,0.18,20.54c0.83-0.2,2.51-0.6,3.35-0.8c2.98-5.27,1.6-11.79,4.49-17.05c0.74,6.47,0.18,12.97-0.31,19.43
	c1.01,0.21,2.05,0.43,3.11,0.67c2.13-5.77,2.51-11.93,3.73-17.91c2.96,6.15,0.04,12.96,0.51,19.44c0.64,0.11,1.92,0.33,2.56,0.44
	c1.92-5.49,1.65-11.6,4.14-16.84c1.26,5.34,0.09,10.77-0.36,16.14c0.58,1.42,1.68,2.71,3.26,3.14c2.87-5.11,2.13-11.2,4.13-16.56
	c1.51,5.46,0.6,11.18,0.27,16.75c1.83,0.45,3.69,0.94,5.55,1.44c1.14-5.31,1.85-10.7,2.1-16.12c3.49,5.38,0.99,12.02,1.61,17.99
	c1.3-0.61,3.68-0.35,3.66-2.37c0.57-3.98,0.3-8.03,0.75-12.01c4.14,4.19,2.18,10.42,2.8,15.67c1.4,0.14,2.84,0.29,4.3,0.45
	c0.51-5.04,0.19-10.12,0.88-15.12c2.98,4.9,2.05,11.01,2.38,16.51c1.22,0.22,2.47,0.46,3.75,0.71c0.08-4.98,0.15-9.96,0.67-14.91
	c2.93,4.66,1.57,10.42,2.13,15.64c1.44,0.17,2.9,0.36,4.4,0.57c0.52-4.61,0.59-9.24,0.42-13.86c0.38-0.16,1.12-0.46,1.5-0.61
	c0.72,4.75,1.46,9.53,1.33,14.37c1.84,0.32,3.69,0.68,5.56,1.07c0.22-4.43,0.3-8.85,0.51-13.27c2.91,3.55,2,8.37,2.33,12.62
	c1.53,0.18,3.09,0.38,4.66,0.59c0.11-4.08-0.08-8.18,0.46-12.23c2.77,3.49,2.13,8.18,2.37,12.35c1.23,0.08,2.5,0.17,3.79,0.29
	c0.2-3.49,0.29-6.98,0.57-10.45c2.04,3.24,1.95,7.1,2.23,10.8c1.62,0.05,3.27,0.13,4.94,0.24c0.17-3.35-0.04-6.77,1.13-9.97
	c0.69,3.36,1.31,6.77,1.38,10.23c1.63,0.18,3.26,0.34,4.95,0.54c0-2.77,0.06-5.51,0.11-8.25c0.44,0.12,1.3,0.38,1.73,0.51
	c0.27,2.64,0.5,5.3,0.83,7.96c1.37,0.07,2.77,0.16,4.2,0.27c-0.02-2.56,0.02-5.11,0.37-7.62c1.76,2.25,1.84,5.17,2.26,7.91
	c1.6,0.06,3.23,0.14,4.88,0.23c0.16-2.06,0.42-4.09,0.75-6.09c1.06,1.99,1.46,4.22,1.94,6.43c2.22,0.21,4.44,0.39,6.7,0.57
	c0-1.9,0.01-3.77,0.06-5.63c0.83,1.8,1.53,3.68,2.52,5.45c1.4,0.95,3.14,1.24,4.76,1.8c0.11-2.04,0.23-4.07,0.49-6.08
	c1.39,1.9,1.99,4.19,2.64,6.44c6.88,1.58,13.83,2.85,20.7,4.52c6.8,1.63,13.93,2.87,19.9,6.77c4.41,2.92,8.77,5.94,13.27,8.75
	c3.74,2.52,8.04,4.5,10.7,8.32c6.91,8.42,13.33,17.25,20.79,25.22c2.9,3.16,4.03,7.4,5.63,11.29c3.83,9.52,7.63,19.06,11.53,28.56
	c3.2,6.79,1.5,14.52,3.16,21.67c1.49,6.23-4.61,10.73-4.88,16.66c-0.19,1.34-0.3,2.73-0.45,4.11c-2.57,4.63-4.28,9.85-8.13,13.66
	c-3.51,3.5-6.61,7.36-9.9,11.06c-7.69,7.3-14.38,15.8-23.39,21.6c-7.17,4.51-14.52,8.75-21.62,13.38
	c-6.15,4.16-13.29,6.53-19.55,10.5c-15.68,11.15-34.39,16.96-52.94,21.28c-12.51,3.08-25.04,6.14-37.77,8.17
	c-11.35,1.87-22.26,5.7-33.58,7.62c-28.3,6.56-57.32,9.19-86.22,11.5c-17.72,1.27-35.51,0.62-53.22-0.45
	c-14.91-0.36-29.8-1.09-44.72-0.99c-13.68,0.17-27.4-0.76-41.03,0.72c-6.32,0.62-12.69,0.33-18.93-0.72
	c-10.08-1.46-20.28-1.58-30.39-2.51c-12.92-2.03-25.9-3.67-38.79-5.84c-16.23-1.86-32.44-3.84-48.56-6.41
	c-8.74-1.68-17.48-3.46-26.36-4.17c-9.63-0.39-18.85-3.42-28.16-5.57c-25.13-5.89-49.84-13.49-74.25-21.84
	c-7.22-2.22-13.72-6.1-20.54-9.24c-9.77-4.66-19.63-9.12-29.57-13.4c-16.22-6.42-31.59-14.75-46.77-23.28
	c-5.42-2.87-10.08-7.13-15.93-9.13c-6.48-2.45-12.52-5.86-18.22-9.75c-10.13-7.21-22.52-10.72-31.84-19.13
	c-12.17-8.34-23.82-17.4-35.48-26.43c2.25,2.69,4.99,4.95,7.18,7.72c1.7,4.58,2.3,9.54,2.93,14.38c-0.5,7.15-1.41,14.37-4.06,21.09
	c7.98,5.05,16.53,9.64,22.94,16.75c2.72,2.89,4.38,6.64,4.9,10.58c-5-0.67-8.92-4.11-13.43-6.03c-5.97-2.6-12.19-4.85-18.65-5.76
	c-2.18-0.63-3.29,1.56-4.41,2.98c-1.62,2.32-3.17,4.73-4.2,7.4c2.31,5.3,7.48,8.36,11.91,11.71c7.23,5.31,14.1,11.18,20.21,17.77
	c5.95,6.5,10.14,15.01,9.91,23.98c-5.02,1.34-8.74-2.95-12.69-5.22c-7.83-5.77-17.23-8.62-26.3-11.73
	c-5.52-1.51-11.74-3.05-17.18-0.53c-2.13,3-3.73,6.4-4.77,9.93c2.2,6.14,7.6,10.12,11.49,15.12c4.96,6.35,9.98,13.1,11.59,21.19
	c0.6,4.11,0.17,8.29-0.3,12.4c-3.63,0.56-5.91-2.41-8.2-4.65c-7.08-7.86-16.88-12.97-27-15.66c-4.04,10.69-7.09,21.74-11.42,32.33
	c-2.66,9.59-3.98,19.5-5.75,29.26c-3.23,3.83-8.64,5.17-11.64,9.29c-3.4,4.53-6.57,9.51-11.6,12.41c-2.84,1.25-6.01,1.33-8.97,2.12
	c-3.94,4.36-6.08,10.63-11.53,13.47c-4.83,1.5-9.99,2.61-15.03,1.55c-4.17-0.75-8.96,1-10.71,5.07c3.62,1.91,8.38,1.67,11.55,4.13
	c-2.39,2.29-6.05,2.42-9.17,2.95c-5.94,0.8-13.58-0.61-15.98-6.86c-1.13-6.84,4.14-12.26,7.85-17.33c2.37-2.5,0.74-6.08,0.38-9
	c-2.27,0.17-4.52,0.37-6.77,0.6c-4.06-4.48-10.64-2.94-15.98-2.81c-4.7,1.79-7.44,6.89-12.3,8.52c-2.4,0.76-4.94,0.86-7.34,1.59
	c-5.04,4.02-8.11,10.84-14.75,12.53c-3.3,0.39-6.63,0.21-9.93,0.18c-4.85-0.04-8.91-3.03-13.03-5.2c-2.17-1.02-2.54-3.64-3.45-5.59
	c-6.12-3.33-13.97-2.89-19.5,1.43c-5.72,3.63-7.17,11.23-6.13,17.51c-4.88-1.16-6.45-6.53-7.46-10.79
	c0.17-7.75,3.37-15.81,10.07-20.2c-4.83-0.29-10.12,0.24-14.37-2.52c-4.47-2.81-8.57-6.19-12.39-9.8
	c-5.54,3.37-9.37,9.08-15.36,11.81c-0.85-0.75-1.68-1.49-2.49-2.2c2.31-5.52,4.97-10.87,7.42-16.32c-3.67,0.13-7.25,1.03-10.71,2.2
	c-3.84,2.27-7.4,5.18-9.95,8.85c-1.78,3.28-1.65,7.15-2.43,10.73c-0.76,2.83,0.71,5.45,1.72,8.01c-2.58,0.27-5.16-0.39-6.51-2.77
	c-3.14-5.05-6.35-10.95-4.96-17.09c0.8-3.62,0.39-7.53,2.19-10.87c2.1-4,4.12-8.41,8.03-10.98c3.58-2.61,7.22-5.31,11.56-6.51
	c4.26-1.24,7.97-3.68,11.23-6.64c3.09-3.22,7.73-1.03,11.6-1.36c6.36-0.2,9.87-6.65,15.83-8.08c5.91-1.45,12.07-2.73,18.18-1.83
	c3.54-0.12,6.62-2.29,10.07-2.97c4.69-1.4,9.81,0.4,14.37-1.68c7.37-3.05,13.86-7.9,19.72-13.26c3.87-3.62,8.78-5.79,12.85-9.14
	c6.46-5.46,9.07-14.07,15.44-19.6c3.19-3.18,6.55-6.4,8.36-10.61c3.78-8.51,7.02-17.3,11.64-25.42c4.1-8,9.56-15.19,13.86-23.07
	c5.88-10.94,12.31-21.57,19.18-31.91c2.79-3.92,2.92-8.87,3.58-13.44c1.05-7.96,3.24-15.94,2.25-24.01
	c-2.86-17.13-5.99-34.3-10.49-51.05c-8.72-4.21-18.18-6.84-27.04-10.82c-8.95-3.24-15.91-9.92-23.25-15.7
	c-3.67-3.01-7.9-5.35-11.04-8.95c-4.58-5.1-9.97-9.41-14.32-14.7c-5.99-7.32-10.95-15.58-18.24-21.74
	c-3.95-3.31-8.05-6.88-13.04-8.41c-2.25-0.72-2.87,2.01-3.99,3.32c-3.46,5.88-8.04,11.07-11.18,17.14
	c0.36,4.75,1.39,9.46,2.95,13.97c6.44-4.33,13.14-8.91,21.02-9.96c-0.23,2.58-0.61,5.25-2.12,7.44c-3.67,5.65-7.52,11.17-11.4,16.68
	c-1.28,1.85-2.79,3.63-3.46,5.83c-0.46,3.64,0.72,7.23,0.87,10.87c0.16,4.41,0.71,8.83,2.1,13.06c2.41-3.04,5.06-6.05,5.99-9.92
	c-0.07,0.9-0.2,2.7-0.27,3.6c9.16-7.23,18.78-14.61,30.34-17.44c0.51,6.4-4.39,11.05-7.5,16.08c-5.03,7.71-11.09,14.8-15.17,23.09
	c-1.84,3.14,0.39,6.65,2.23,9.24c3.2,3.7,4.27,8.6,5.76,13.14c1.19,3.12-0.16,6.34-0.84,9.42c-0.89,3.18-1.21,6.87-3.84,9.21
	c-3.97,3.79-8.26,7.22-12.35,10.87c5.41,8.82,11.51,17.51,14.22,27.64c1.4,4.35,1.68,9.05,0.57,13.52
	c-3.96-1.74-5.75-5.85-8.24-9.08c-5.06-7.46-10.98-14.33-17.46-20.59c-1.11-1.25-2.72-0.09-3.81,0.53
	c-4.56,2.95-8.91,6.25-13.54,9.11c3.07,8.43,7.77,16.12,11.05,24.46c5.35,13.14,10.9,26.51,12.41,40.75
	c0.58,7.51,0.77,15.56-3.12,22.31c-1.69-1.35-3.53-2.57-4.66-4.42c-5.47-9.42-9.05-19.83-15.05-28.93
	c-4.48-7.1-9.45-13.86-14.47-20.57c-4.11-4.79-8.51-10.24-14.88-11.87c-2.89,2-5.56,4.43-7.55,7.34c-1.18,9.67,3.51,18.68,4.25,28.2
	c2.35,13.83,3.73,29.01-3.5,41.71c-2.28-0.9-4.14-2.63-4.3-5.19c-2.44-11.98-5.69-23.89-11.32-34.8c-2.02-3.87-3.9-8.2-7.77-10.58
	c-4.34,2.24-5.91,7.73-10.48,9.61c-3.61,1.54-5.31,5.39-7.96,8.06c-5.25,5.41-9.97,11.41-16.08,15.92
	c-4.38,3.69-9.39,6.54-13.89,10.05c-2.76,4.49-5.43,9.57-5.05,15.01c0.16,3.01,2.18,6.31,0.28,9.14c-1.5,2.84-2.71,5.85-4.38,8.6
	c-2.38,1.98-5.27,3.52-6.84,6.31c-1.16,2.53-1.96,5.24-3.39,7.66c-0.73,2.14-3.34,2.12-5.11,2.94c-1.64-1.99-2.95-4.21-3.74-6.64
	c-0.77-2.94-4.22-3.63-5.75-6c-1.24-1.92-1.92-4.12-2.68-6.22c-3.48,0.67-6.97,1.51-10.53,1.24c-3.2,5.01-3.47,11.62-8.15,15.66
	c-3.81,3.62-9.38,3.14-14.21,2.98c-4.57,0.02-8.49-2.62-12.33-4.74c-2.3-1.15-2.3-4.4-4.57-5.52c-6.84-4.26-16.28-0.93-20.88,5.16
	c-1.97,3.88-2.6,8.41-1.57,12.67c-4.81-0.75-6.26-5.94-7.3-9.96c-0.14-4.63,1.4-9.21,3.6-13.23c-5.64,0.5-10.68-2.35-15.3-5.19
	c-1.41-1.27-2.01-3.16-3.16-4.61c-1.56-1.05-3.23-1.84-4.86-2.73c0.85,3.64,1.63,7.32,1.9,11.07c0.11,3.57-1.66,7.23-0.16,10.72
	c1.21,5.39,6.28,8.67,7.88,13.87c2.25,6.23,4.95,12.69,4.3,19.47c-0.21,1.99-0.16,4.01,0.15,6.03c-2.1,7.67-6.9,14.59-13.63,18.91
	c-4.4,2.26-9.5,3.59-14.45,2.98c3.38-5.25,9.43-8.36,12.4-14c3.09-7.02,1.04-15.04-2.45-21.5c-0.93-2.32-3.49-2.99-5.38-4.25
	c-2.45,0.78-5.06,2.6-7.67,1.38c-2.09-0.94-4.43-1.5-6.21-2.95c-3.32-3.53-5.46-8.04-9.15-11.24c0.1,2.15,0.42,4.31,0.81,6.46
	c-2.52,4.57-2.65,10-5.15,14.62c-1.87,5.25-6.03,9.39-10.99,11.79c-4.84,0.31-9.63,1.71-14.5,1.09c-5.14-0.2-10.49,0.37-15.07,2.88
	c-3.18,1.65-5.56,4.38-8.45,6.45c-3.34,2.67-7.39,4.44-10.22,7.74c-3.17,3.55-7.04,6.36-10.9,9.11c-1.59,1.29-3.75,0.87-5.63,0.84
	c-4.06-0.42-7.99,1.55-12.03,0.49c-4.43-0.99-9.9,0.41-11.73,4.96c3.93,1.75,8.49,1.9,12.07,4.42c-6.25,2.7-13.64,4-20.16,1.5
	c-2.93-1.53-6.07-4.35-5.68-7.96c0.11-3.36,1.99-6.27,3.09-9.33c-5.09,1.31-10.17,2.92-15.46,3.07c-2.84-0.98-5.47-2.5-8.31-3.46
	c-2.65-0.22-5.1,1.49-7.74,1.22c-4.71-0.43-9.31-1.65-14.03-1.9c-2.92-0.18-6.2,1.12-8.81-0.74c-4.37-2.87-9.63-4.83-12.78-9.2
	c-1.83-2.33-1.89-5.37-2.31-8.14c-1.84,0.11-3.19,1.57-4.73,2.42c0.02-0.78,0.07-2.34,0.1-3.12c-5.01,1.52-10.06,3.02-14.86,5.11
	c-3.65,2.17-6.98,4.86-10.19,7.63c-1.36,1.01-2.36,2.99-4.33,2.69c-1.49-4.29,1.03-8.22,3.46-11.54c6.49-9,16.97-14.05,27.23-17.47
	c-7.57-4.98-17.85-4.37-25.39,0.33c-4.28,2.94-8.63,5.93-11.92,10.01c-1.31,1.05-2.23,3.9-4.22,2.41c0.32-5.3,1.12-10.8,4.57-15.04
	c7.65-10.11,19.32-17.76,32.19-18.7c7.81-1.19,15.47,1.45,22.59,4.39c2.1,1.2,4.32-0.06,6.42-0.58c5.41-1.66,11.45-2.51,16.71,0.12
	c6.63,1.22,12.89,4.65,19.75,4.38c3.93-2.25,7.34-5.28,10.54-8.45c2.84-2.23,6.53-2.79,9.8-4.14c3.85-1.47,7.17-4.02,10.09-6.88
	c3.07-3.29,6.99-5.68,9.78-9.25c2.62-3.41,6.39-5.6,9.22-8.79c3.68-3.32,3.16-8.86,5.93-12.81c-0.79-0.71-1.57-1.41-2.33-2.08
	c1.82-12.87,3.95-25.7,5.28-38.62c1.02-5.61,3.63-10.75,5.43-16.12c3.2-9.43,7.8-18.36,13.48-26.53c3.19-4.56,5.59-9.62,9.04-14
	c1.86-2.18,1.79-5.2,2.45-7.84c1.12-5.96,4.77-10.94,7.34-16.3c2.39-4.93,5.01-9.74,7.65-14.54c2.5-4.37,3.18-9.43,4.7-14.16
	c5.59-20.29,13.87-39.74,18.75-60.23c4.1-15.9,8.18-31.84,13.59-47.36c1.62-5.17,2.9-10.55,5.98-15.1
	c4.26-8.31,7.51-17.11,11.37-25.61c2.82-5.65,5.71-11.29,7.63-17.33c-15.68-8.03-27.09-21.99-38.49-35.02
	c-5.36-6.25-11.87-11.62-16.18-18.71c-2.17-4.83-5.16-9.31-6.61-14.44c-3.55,2.5-7.35,4.73-11.48,6.13
	c-2.64,0.64-5.38,0.07-8.03,0.55c-2.56,1.14-4.39,3.38-6.65,4.99c-2.05,1.65-4.69,2.16-7.13,2.98c-5.21,1.56-10.17,4.11-15.65,4.67
	c-9,0.69-18.33-1.34-27.1,1.37c-2.77,2.63-4.76,6.01-7.62,8.59c0.27-2.23,0.68-4.42,1.07-6.6c-9.84,5.68-21.33,6.93-31.83,10.82
	c-1.96,8.4-3.11,17.12-6.73,25.06c-1.42-1.13-1.05-3.1-1.24-4.65c-0.11-5.79-0.15-11.6-1.31-17.29c-7.95,2.42-16.07,4.26-24.04,6.63
	c-1.22,10.85-1.52,21.81-3.35,32.6c-1.54,10.67-3.95,21.67-10.1,30.72c-1.21,1.13-2.56,4.2-4.24,2c-0.61-8.91,1.33-17.77,0.98-26.69
	c-0.01-8.46-0.64-16.94-2.18-25.26c-0.71-2.4-1.06-5.4-3.37-6.8c-3.37,0.72-6.61,1.96-9.8,3.24c-2.91,1.16-3.58,4.62-4.83,7.17
	c-3.76,10.49-4.77,21.71-7.75,32.42c-5.15,19.24-9.86,39.13-20.77,56.09c-3.31,5.84-7.96,10.82-13.19,14.99
	c-0.87-1.84-2.3-3.65-1.86-5.78c1.39-9.19,3.52-18.26,5.49-27.34c2.73-13.75,2.99-27.8,3.99-41.73c0.1-7.39-0.67-14.95-3.8-21.72
	c-3.87,1-8.3,1.05-11.58,3.54c-6.63,8.31-8.85,19.01-13.79,28.26c-4.97,10.02-9.72,20.32-17.04,28.9
	c-3.44,5.4-8.74,9.15-14.08,12.49c-2.55-0.62-1.44-3.83-1-5.63c4.75-11.48,9.88-22.89,12.67-35.06c1.73-8.02,4.49-16.28,2.72-24.54
	c-7.29,1.85-14.19,4.97-21.55,6.57c-2.47,0.96-6.16,0.83-7.11,3.84c-4.5,10.38-11.18,19.56-16.51,29.5
	c-3.72,7.53-8.63,14.5-14.36,20.64c-7.03,6.39-12.22,14.42-18.57,21.43c-5.42,6-9.31,13.24-15.14,18.88
	c-3.11,3.51-5.46,7.75-6.64,12.3c-2.27,9.48-9.07,17.53-9.64,27.45c-1.82,7.21-4.27,14.37-4.4,21.88c0.26,2.42,1.04,4.78,1.23,7.23
	c-1.58,3.57-3.36,7.07-5.06,10.6c-2.51,2.11-5.72,3.66-7.24,6.74c-1.09,2.55-1.92,5.24-3.38,7.64c-0.77,1.97-3.24,1.9-4.9,2.72
	c-2.23-2.36-3.68-5.26-4.36-8.4c-2.11-1.53-4.66-2.76-5.84-5.21c-2.04-3.8-2.25-8.23-3.43-12.31c-0.43-4.88,3.33-8.9,3.61-13.68
	c0.81-7.35,4.77-13.75,7.62-20.42c4.85-8.44,7.04-18.08,8.31-27.64c1.08-4.54-0.19-9.16-0.89-13.65c-0.84-3.53-1.48-7.21-3.24-10.41
	c-1.07-0.53-2.27-0.83-3.45-0.67c-5.91,7.07-9.45,15.7-13.04,24.09c-3.44,7.45-6.18,15.18-9.36,22.74
	c-1.99,3.7-1.34,8.06-2.74,11.97c2.93,2.92,6.43,5.29,9.04,8.53c3.02,6.07-0.93,12.46-4.22,17.46c-3.71,3.57-7.53,9.22-4.32,14.32
	c3.59-2.34,6.59-5.47,10.27-7.67c-0.37,6.19-3.7,11.96-8.12,16.19c-3.25,3.1-9.24,4.34-12.55,0.7c-4.46-4.14-5.16-10.49-7.38-15.84
	c-2.56-3.48-8.11-3.57-9.95-7.8c-3.33-5.55-2-12.17-1.51-18.23c0.61-6.29-2.75-12.22-1.8-18.5c1.4-10.85,7.39-20.3,13.06-29.4
	c4.9-7.92,8.22-16.62,11.93-25.1c-4.21,2.77-8.91,4.88-12.64,8.34c-1.79,1.52-3.41,3.32-5.5,4.45c-3.97,0.39-7.97,0.01-11.89-0.61
	c-5.54-0.27-10.16-4.37-13.1-8.79c-3.93,0.83-7.83,1.79-11.68,2.92c3.5,3.6,7.97,7.46,7.71,12.98c-0.45,3.13-1.44,6.17-2.3,9.22
	c-1.2,4.28-4.89,7.1-7.81,10.21c-1.54,1.95-4.17,1.73-6.38,2.01c-1.35,1.89-3.03,3.6-4.01,5.74c-2.01,5.78-0.74,12.68,3.53,17.13
	c3.55,2.58,7.75,4.66,12.27,4.34c-1.75,4.8-7.7,4.57-11.93,4.7c-6.62-1.7-13.32-5.38-16.43-11.75c-4.2-9.95-3.25-21.38,0.14-31.4
	c-0.86-4.1-4-7.42-4.15-11.69c-0.46-6.61,0.85-13.24,2.41-19.62c2.92-7.9,1.12-16.52,3.26-24.58c3.59-6.55,9.54-12.28,17.04-13.87
	c8.49-1.79,17.24-1.72,25.77-3.35c6.36-1.43,13.05-1.37,19.16-3.84c4.83-1.86,10.13-1.54,15.07-2.96c5.73-1.8,10.72-5.44,16.62-6.77
	c1.97-0.27,3.01-2.1,4.22-3.43c2.85-3.83,7.28-6.01,10.36-9.62c11.78-12.59,26.99-21.01,40.45-31.54
	c6.32-5.11,13.62-8.94,19.48-14.61c1.57-1.29,3.35-3.63,5.57-2.19c9.08-6.32,19.95-9.01,30.06-13.16c5.61-2.95,10.92-6.44,16.41-9.6
	c10.02-5.77,19.31-12.67,29.05-18.89c4.49-2.86,9.38-5.15,13.51-8.56c12.39-10.92,24.82-21.81,37.16-32.79
	c9.96-7.39,20.64-13.84,30.12-21.89c5.63-4.38,10.64-9.62,16.95-13.05c7.31-4.29,14.31-9.08,21.58-13.42
	c6.38-3.9,13.91-5.13,20.4-8.8c-6.43-1.47-12.72-4.03-17.58-8.6c-4.43-3.95-8.05-8.68-11.55-13.43c-3.53-5.11-8.45-9.21-11.09-14.93
	c-4.25-8.95-9.99-17.12-13.62-26.37c-3.38-8.48-8.03-16.35-13.17-23.86c-1.2-1.78-2.78-3.25-4.54-4.44
	c-8.02-5.46-15.47-11.78-22.04-18.92c-6.32-6.71-11.89-14.13-18.78-20.28c-2.1-1.86-4.88-2.56-7.43-3.52
	c-10.41-3.6-20.19-8.75-29.63-14.36c-8.42-5.12-16.03-11.43-24.35-16.69c-14.23-8.72-25.08-21.67-38.24-31.76
	c-12.08-10.39-20.41-24.2-28.04-37.98c-6.8-13.19-16.12-24.9-22.81-38.16c-4.94-9.01-8.22-19.07-15.11-26.88
	c-2.88-3.53-5.71-7.12-8.99-10.3c-4.24,5.89-7.52,12.37-11.04,18.69c-2.08,3.85-5.85,7.11-5.99,11.75
	c-0.63,3.33,0.32,7.3-2.16,10.04c-7.07,8.56-13.4,17.81-18.43,27.7c1.97-0.99,3.87-2.14,5.66-3.45
	c8.81-6.75,17.61-13.64,25.05-21.92c3.78-4.1,5.81-9.46,9.67-13.49c-1.87,10.18-5.89,19.91-11.56,28.57
	c-3.84,7.51-9.1,14.12-14.31,20.7c-2.33,2.93-5.78,4.85-7.66,8.16c-2.21,4.05-6.31,6.56-8.72,10.46
	c-6.6,10.59-13.33,21.16-18.52,32.53c-1.99,3.74-3.02,7.86-4.01,11.95c-1.77,7.33-4.14,14.51-6.32,21.73
	c-1.54,4.84-1.39,9.97-1.97,14.96c-0.63,8.07-1.68,16.1-2.22,24.18c-0.22,2.16,0.43,4.28,0.91,6.39c1.72,6.93,0.64,14.16,1.73,21.18
	c0.82,4.62-0.14,9.41,1.17,13.97c1.42,6.15,5.3,11.3,7.45,17.17c1.53,3.86,4.08,7.4,7.64,9.64c4.64,3.01,9.3,6.01,13.61,9.47
	c23.33,7.35,44.11,22.91,57.42,43.47c1.55,2.1,1.99,4.7,1.91,7.28c-4.6-2.33-7.05-7.05-10.79-10.38c-5.5-5.57-12.93-8.45-19.6-12.28
	c-11.01-6.19-23.49-9.27-35.97-10.6c-1.9,1.01-3.08,3.22-5.33,3.53c-5.85,1.33-12.46,2.72-16.7,7.21c1.48,4.7,5.17,8.45,6.53,13.24
	c0.64,2.36,0.02,5.22,1.98,7.07c5.5,6.22,11.06,12.49,15.18,19.76c5.23,7.78,8.31,16.69,11.57,25.4c2.89,7.71,3.71,16.04,3.33,24.23
	c-0.01,1.24-0.58,2.16-1.72,2.74c-1.58-0.41-1.46-2.47-2.08-3.66c-2.66-9.78-5.05-19.78-10.17-28.63
	c-3.29-8.13-8.98-14.86-14.42-21.61c-3.88-4.54-9.12-7.55-13.83-11.11c-2.19-1.74-5.2-1.35-7.66-2.46
	c-4.75-2.06-9.45-4.8-14.77-4.91c-3.45-0.54-4.94,5.32-8.45,3.26c-4.26-2.49-4.48-7.82-6.17-11.9c-2.21-3.17-3.89-6.73-6.52-9.58
	c-2.87,1.08-2.52,4.69-3.51,7.1c1.02,0.12,3.07,0.35,4.1,0.47c-1.57,1.39-3.16,2.75-4.73,4.16c-0.74,5.42-2.93,10.47-4.48,15.69
	c-1.38,4.29,0.56,8.83,2.89,12.43c4.58,6.9,9.94,13.46,16.75,18.28c3.46,2.62,7.51,5.84,6.44,10.75c-7.83,1.22-14.99-2.8-22.3-4.83
	c-12.91-3.41-25.21-8.81-36.91-15.18c-10.61-5.47-20.85-12.26-28.32-21.72c-6.45-6.64-13.17-13.19-17.76-21.33
	c-4.73-7.5-7.26-16.05-10.74-24.13c-2.48-7.23-7.24-13.94-7.1-21.83c5.32,0.11,8.03,5.25,11.31,8.64
	c3.94,5.06,9.02,9.08,14.87,11.72c0.24-0.81,0.72-2.43,0.96-3.24c-7.12-10.13-11.86-21.7-16-33.32c-1.73-5.19-4.05-10.27-4.76-15.73
	c0.32-0.4,0.94-1.19,1.25-1.59c3.3,2,5.91,4.96,9.27,6.86c1.95,0.41,3.93-0.3,5.88-0.44c-0.27-3.44-0.47-6.92-1.59-10.21
	c-4.02-14.03-10.65-27.54-20.76-38.2c-2.13-2.22-4.58-4.16-6.33-6.7c0.26-2.16,1.23-4.17,1.43-6.33c-0.76-2.55-2.4-4.71-3.99-6.78
	c-0.17,1.09-0.51,3.27-0.68,4.36c-6.48-1.65-12.9-3.58-19.22-5.77c-1.88-0.38-2.28-2.45-3.02-3.91c-2.54-6.7-4.5-13.68-8.21-19.87
	c-1.1-1.55-1.54-4.12-3.78-4.34c-4.51-0.63-9.08,0.07-13.61-0.22c-2.09-0.96-0.9-3.45-0.98-5.19c0.87-5.92-0.48-12.07,1.48-17.82
	c2.38-6.61,2.58-13.85,1.51-20.73c-1.66-7.65-7.31-13.71-13.46-18.19c0.36-1.89,0.73-3.77,1.09-5.64
	c-3.96-3.42-8.02-6.71-11.89-10.21c-1.98-1.53-1.85-4.23-2.68-6.36c-2.9-3.71-6.9-6.44-9.59-10.33c-2.98-5.02-4.57-10.71-7.22-15.89
	c-1.34-2.57-2.03-5.42-2.19-8.3c-0.75-9.03-1.79-18.13-0.8-27.19c0.36-3.31,0.23-6.9,2.19-9.77c2.61,8.5,4.27,17.27,7.4,25.62
	c1.58,7.64,6.77,13.8,12.69,18.59c-2.23-7.22-4.93-14.33-5.81-21.88c-1.65-4.44,1.67-8.43,2.38-12.69c0.64-3.55,1.67-7.2,0.99-10.81
	c-2.66-4.75-8.51-7.46-10.01-12.89c3.97-8.85,10.28-16.4,14.56-25.09c-3.28-1.84-6.52-3.77-9.95-5.34
	c3.26-6.67,6.33-13.6,6.95-21.09c-3.05-1.19-6.43-1.77-9.1-3.75c-0.38-1.23-0.46-2.47-0.25-3.73c2.43-5.01,5.96-9.37,9.28-13.8
	c-1.21-1.17-2.58-2.22-3.49-3.64c-1.05-6.83,3.37-12.83,5.58-19c-1.26-0.23-2.51-0.46-3.77-0.69c-2.75-4.84-0.85-10.18,0.45-15.12
	c-2.85-0.88-5.42-2.79-6.09-5.84c-0.06-3.24,1.39-6.2,2.53-9.13c-1.27-0.16-2.53-0.31-3.8-0.44c-0.63-1.45-1.89-2.75-1.91-4.37
	c0.74-3.1,2.35-5.9,3.77-8.72c-2.4-1.12-4.33-2.92-5.76-5.12c1.55-3.19,3.14-6.35,4.93-9.4c-1.43-1.69-2.82-3.41-4.2-5.12
	c1.31-3.41,2.54-6.87,4.56-9.93c-0.9-1.83-2.2-3.58-2.49-5.63c0.91-3.06,3.06-5.51,4.53-8.29c-0.58-1.77-1.72-3.3-2.25-5.08
	c-0.29-2.06,0.77-3.96,1.45-5.83c-4.25-1.79-2.83-7.15-5.91-9.96c-1.98-2.07-1.62-5.06-2.3-7.63c-4.8-8.44-8.23-17.85-15.09-24.97
	c-1.83-1.76-3.15-3.96-3.7-6.45c9.97,4.45,20.93,8.35,28.13,16.99c3.2,4.48,8.77,6.64,11.46,11.57c4.3,7.29,9.19,14.25,13.23,21.69
	c2.49,6.43,7.33,11.85,8.37,18.83c1.4,10.34,4.8,20.51,10.65,29.21c3.34,6.21,7.95,11.71,10.75,18.2
	c1.64,5.88,4.72,11.22,6.27,17.12c3.33-2.03,2.26-6.25,3-9.5c1.74-6.55,0.45-13.35,1.09-20.01c0.7-8.05,0.55-16.64,4.03-24.07
	l0.73,0.32c1.08,4.79,1,9.81,2.49,14.52c0.95,2.87,2.03,5.7,3.06,8.55c0.94-4.1,1.83-8.21,2.99-12.25c1.17,0.05,2.34,0.11,3.51,0.17
	c2.85-3.76,7.86-6.42,8.27-11.57c1.13-4-1.66-8.09-0.27-12c2.84-4.32,7.49-7.14,10.23-11.52c-1.25-3.2-3.49-6.23-3.54-9.76
	c2.49-3.79,6.15-6.61,9.02-10.09c-1.61-2.48-3.66-4.98-3.57-8.1c2.12-4.14,6.2-6.68,8.9-10.33c-0.85-2.33-2.18-4.47-2.82-6.86
	c2.36-4.6,7.29-7,10.45-10.98c-0.95-2.57-2.27-5.15-2.25-7.94c2.33-5.68,8.96-7.61,12.38-12.4c-0.05-2.79-1.67-5.73-0.18-8.37
	c3.41-4.83,9.14-7.05,13.66-10.59c0.4-2.73-0.44-5.56,0.55-8.2c1.39-5.4,6.59-8.56,8.69-13.57c-1.11-2.7-3.86-4.82-3.65-7.94
	c-0.24-2.64,1.42-4.86,2.37-7.18c-1.42-0.65-2.83-1.31-4.24-1.95c-0.48-3.21-0.57-6.46-0.15-9.67c-5-2.76-5.5-9.24-3.04-13.92
	c-5.82-9.49-1.56-21.15,3.18-30.12c0.35,4.44,0.14,9.09,1.94,13.27c1.37,3.09,3.03,6.1,3.7,9.46c0.84,4.68,4.01,8.38,6.45,12.31
	c2.79,4.9,8.58,6.69,12.23,10.79c4.91,5.16,5.7,12.54,7.9,19.01c2.15,8.11,4.21,16.51,3.28,24.97
	c-0.93,10.36-5.42,19.85-10.13,28.96c-4.63,9.15-8.75,18.73-9.96,29.01c-0.43,5.68-1.75,11.3-1.52,17.02
	c0.38,11.25,0.61,22.56-0.61,33.78c2.9-1.55,5.82-3.28,9.15-3.61c4.99-0.92,10.22-0.21,15.02-2.05c0.01-5-0.38-10.31,2.05-14.87
	c1.32-2.74,3.9-4.52,6.5-5.92c-2.33,5.89-1.76,12.28,0.4,18.13c4.94-0.24,9.88-0.49,14.81-0.87c1.23-5.37,2.67-11.03,6.61-15.13
	c2.75-3.15,6.72-4.91,10.8-5.56c-3.44,4.92-6.51,10.72-4.85,16.92c0.62,3.5,5.2,3.28,7.77,2.35c2.33-4.39,2.96-9.71,6.61-13.36
	c2.06-2.54,5.28-3.5,8.33-4.24c-1.65,2.91-3.85,5.65-4.45,9.04c-0.51,2.87-0.41,5.8-0.4,8.71c5.35,1.13,10.65,2.54,16.06,3.43
	c0.22-9.78-0.55-21.78,7.57-28.82c1.35-0.73,3.91-3.39,4.72-0.91c-1.15,3.6-3.05,7.07-2.94,10.97c0.1,7.01,1.55,13.95,3.51,20.67
	c7.38-0.03,14.54,1.82,21.82,2.75c-1.4-8.22-3.94-16.57-2.31-24.95c0.59-3.17,2.37-6.04,5.11-7.79c0.35,4.27-0.45,8.61,0.46,12.84
	c1.7,8,4.96,15.53,8.2,23c5.74,1.4,11.08,3.92,16.22,6.75c0.65-11.31,1.63-23.14,7.38-33.17c2.65-4.52,6.81-8.64,12.24-9.34
	c-0.92,4.79-4.47,8.52-5.42,13.31c-2.4,10.49-1.69,21.51,0.02,32.04c2.99,2.83,7.23,4.3,11.05,5.81c4.58-3.75,5.94-9.9,9.33-14.56
	c4.13-6.39,11.25-12.15,19.35-10.47c-2.8,3.78-6.89,6.63-8.73,11.1c-2.92,6.82-4.62,14.26-4.65,21.69c2.66,2.51,6.08,4.17,9.5,5.38
	c3.26-3.17,5.93-7.13,10.15-9.14c2.94-1.6,6.36-1.56,9.61-1.39c-2.21,2.49-5.24,4.07-7.4,6.62c-2.17,2.67-3.54,5.85-5.06,8.91
	c3.95,2.57,7.18,6.53,11.71,8.02c4.38-2.73,8.53-6.1,13.63-7.4c4.7-1.38,10.01-1.22,14.3,1.34c-2.77,1.76-6.18,2.05-8.98,3.76
	c-3.6,2.18-6.21,5.55-8.79,8.79c4.05,1.24,7.93,2.96,11.59,5.11c3.31-4.02,6.78-8.39,11.87-10.21c2.55-1.06,5.35-0.68,8.03-0.45
	c-2.58,2.22-5.59,3.99-7.75,6.67c-2.12,2.65-3.43,5.81-4.79,8.89c2.64,1.53,5.2,3.2,7.79,4.85c7.63-6.35,18.74-11.83,28.34-6.32
	c-3.06,1.29-6.34,2.06-9.24,3.69c-3.16,1.8-5.56,4.64-7.52,7.66c3.04-0.16,6.24,0.03,9.12-1.11c2.79-1.48,5.65-2.88,8.22-4.72
	c11.41-7.95,24.49-12.99,37.55-17.51c0.19,0.44,0.58,1.33,0.77,1.78c-4.99,2.46-9.37,5.88-13.63,9.41
	c-5.69,4.93-12.35,9.2-16.07,15.95c-2.06,2.89-5.4,5.14-5.6,9.02c1.68-0.1,3.39-0.11,5.05-0.47c1.96-3.03,2.63-6.67,4.35-9.82
	c1.82-3.64,4.67-6.77,8.37-8.54c0.22,5.77-0.05,11.55,0.18,17.33c4.88,0.39,9.23,3.89,14.21,2.55c1.14-12.4,3.47-25.28,10.95-35.57
	c1.02-1.3,2.43-2.19,3.75-3.16c0.82,3.42,1.24,6.91,1.47,10.42c0.65,7.86,2.83,15.47,4.96,23.03c2.67-0.21,5.35-0.43,8.03-0.66
	c5.14-10.88,11.16-22.03,21.39-28.94c1.18-0.73,2.49-1.18,3.78-1.68c-0.09,3.67-0.71,7.3-1.67,10.84
	c-1.49,5.47-1.19,11.19-2.11,16.75c1.89,1.07,3.72,2.29,5.68,3.28c1.75-0.76,5-0.95,4.43-3.59c0.03-8.85-0.45-17.85,1.78-26.5
	c1.45-5.53,2.64-11.52,6.86-15.72c1.1,2.77,2.1,5.61,2.71,8.54c1.78,9.18,5.4,17.85,8.9,26.47c2.62-0.62,5.24-1.26,7.85-1.94
	c3.42-12.62,7.6-25.76,17.08-35.25c0.95-0.78,2.06-1.31,3.13-1.91c1.32,6.05-0.73,12.14-0.17,18.24c0.49,5.59,0.92,11.19,0.94,16.81
	c5.77-0.49,10.76-3.61,16.27-5.1c0.99-0.46,2.66-0.63,2.79-2.01c4.76-21.42,12.56-42.09,22.5-61.63c1.13-2.18,2.99-3.84,4.67-5.59
	c-0.2-7.92-5.63-14.21-9.35-20.8c-10.46-17.65-21.75-34.81-33.14-51.88c-11.21-18.08-23.99-35.12-37.32-51.68
	c-14.08-17.36-26.96-35.63-40.9-53.09c-4.3-5.68-9.43-10.65-13.76-16.3c-5.95-6.04-11.31-12.65-17.66-18.3
	c-4.57-5.43-10.29-9.69-15.06-14.93c-4.67-5.02-10.01-9.34-14.97-14.05c-10.75-10.92-22.21-21.11-33.1-31.88
	c-5.99-6.67-12.54-12.8-18.99-19.01c-6.54-6.17-14.78-9.95-22.31-14.69c-7.33-4.46-15.31-7.74-22.38-12.63
	c-9.99-7.24-21.6-11.69-32.27-17.77c-3.69-2.18-7.63-4.23-10.27-7.73c-5.58-5.84-7.6-13.97-9.01-21.68
	c0.19-3.57,1.63-7.02,1.51-10.66c-27.71-21.02-55.58-41.83-83.31-62.83c-3.49-2.85-7.33-5.26-10.54-8.43
	c-5.44-5.26-11.59-9.73-16.99-15.03c-6.99-6.68-15.69-11.06-23.73-16.28c-5.07-3.22-10.73-5.7-15.16-9.83
	c-2.03-2.92-4.35-6.53-3.45-10.24c1.22-1.99,2.46,0.33,3.63,1.12c2.45,2.83,6.94,0.7,9.5,3.46c3.96,3.42,9.1,5.1,14.25,5.61
	c5.98,0.16,12.71,0.82,17.65-3.27c3.65-2.75,2.23-7.85,1.56-11.66c-2.77-9.21-7.64-17.61-12.17-26.03
	c-4.99-6.85-9.14-14.24-13.31-21.6c-4.11-7.84-9.3-15.13-12.52-23.42c-2.66-7.76-5.41-15.49-8.44-23.11
	c-1.47-2.49,2.11-5.83,4.56-4.22c2.59,1.39,4.96,3.17,7.6,4.5c14.55,6.96,28.86,14.6,42.08,23.9c12.08,7.6,23.67,15.96,36.11,22.96
	c15.33,8.87,31.37,16.91,48.58,21.41c7.71,2.45,15.81,3.34,23.76,4.79c23.18,3.57,46.78,0.4,70.01,3.2
	c17.3,0.67,34.04,5.84,51.23,7.35c7.14,1.8,14.52,2.2,21.83,2.72c1.96,6.7,5.95,12.49,9.9,18.14
	c11.41,15.37,23.41,30.51,38.09,42.92c12.67,10.4,26.97,18.89,42.38,24.53c27.89,10.31,57.82,13.07,86.15,21.87
	c11.36,3.14,22.57,6.84,33.36,11.6c5.99,2.08,11.97,4.28,18.1,5.94c3.07,2.37,3.7,6.49,5.24,9.84c6.64,17.3,18.54,31.77,29.7,46.31
	c5.24,7,11.45,13.19,17.55,19.45c11.41,12.41,21.47,25.99,31.46,39.55c11.58,15.34,22.12,31.44,32.25,47.77
	c9.35,13.54,17.23,28.01,26.03,41.91c8.16,12.54,16.05,25.24,24.3,37.73c8.98,12.76,22.73,20.79,34.83,30.23
	c6.26,4.86,10.97,11.54,13.96,18.86c2.58,7.52,5.25,15.06,8.89,22.15c1.92,2.11,3.16,4.66,4.06,7.37c1.23-3.55,3.9-5.95,6.92-7.97
	c-0.67-5.76,2.22-10.87,3.82-16.23c1.79-4.78,4.5-9.21,5.42-14.3c5.25-13.39,8.15-27.53,11.66-41.44
	c5.02-22.34,8.45-44.98,12.82-67.45c4.48-22.33,9.86-44.47,15.53-66.52c3.78-11.77,5.82-23.99,9.01-35.93
	c0.61-6.53,3.5-12.56,3.91-19.12c1.76-7.89,3.12-16.29,0.6-24.18c-4.46-13.6-15.66-23.52-21.12-36.62
	c-2.32-5.88-3.99-12.16-7.8-17.31c-4.06-5.48-7.64-11.31-10.52-17.49c-0.82-2.02-2.06-4.42-0.65-6.48c1.38-2.57,2.02-5.44,3.17-8.11
	c6.72-11.45,17.5-20.72,30.29-24.63c2.08-0.86,4.28-0.26,6.39,0.16c-3.24,6.01-9.92,9.02-13.41,14.8c-1.63,2.56-1.49,5.65-1.4,8.56
	c6.36,1.93,11.2,8.01,11.32,14.7c0.03,7.12-2.81,14.26-1.13,21.37c2.6,5.74,7.8,9.79,13.07,12.97c2.71,1.48,4.5,5.82,8.1,4.51
	c5.4-1.15,10.22-4.12,13.78-8.32c8.72-9.62,17.05-19.6,25.97-29.05c12.31-12.07,25.44-23.25,38.38-34.63
	c21.27-20.07,42.2-40.53,64.32-59.68c7.4-7.4,15.94-13.47,24.33-19.67c7.48-5.8,14.9-11.7,21.98-18c1.25-1.1,2.24-2.47,3.1-3.91
	c3.02-5.55,7.34-10.3,9.93-16.11c3.78-6.16,6.19-13.39,11.69-18.33c2.65-2.54,6.32-3.47,9.83-4.13c3.78-0.57,7.08-2.73,10.87-3.3
	c4.64-0.74,9.36-0.74,14.06-0.58c1.99-0.09,3.68,1.1,5.43,1.92c-3.77,4.05-9.59,4.46-14.02,7.4c-0.25,5.7,4.31,10.24,8.11,13.98
	c4.3,3.43,8.38,7.37,13.61,9.34c18.7,6.08,37.95,12.09,57.86,11.43c15.45,0.22,30.69-2.69,45.85-5.31
	c19.83-4.19,39.47-9.29,58.84-15.25c19.08-5.88,37.72-13.03,56.58-19.57c21.72-7.57,43.76-14.17,65.66-21.2
	c11.57-3.38,23.07-7.02,34.75-10.05c32.84-7.53,64.68-18.64,96.44-29.78c19.37-6.13,39.18-10.83,59.28-13.91
	C1811.37,21.73,1823.4,20.75,1835.39,19.35 M375.79,333.94c-0.02,1.6-0.6,3.31,0.02,4.87c2.19,3.19,5.24,5.69,8.31,8
	c2.01,1.64,4.75,0.99,7.13,1.06c-0.06-1.75,0.92-3.96-0.73-5.24c-3.01-2.75-6.52-4.88-9.69-7.43
	C379.45,333.95,377.48,334.22,375.79,333.94 M702.28,714.49c-2.89,8.59-1.51,17.65-1.65,26.53c0.09,9.62,3.16,19.31,0.84,28.88
	c1.03-0.48,2.06-0.94,3.12-1.39c1.33-7.48,2.14-15.67,7.2-21.72c1.28-1.92,3.38-3.07,4.76-4.89c-2.35-7.93-5.77-15.57-9.36-23.03
	C706.42,716.6,704.01,715.82,702.28,714.49 M300.52,889.2c-2.47,0.67-5.92,0.95-6.53,4.01c-1.31,6.53,0.48,13.21,0.63,19.79
	c5.16-0.48,10.27-1.29,15.39-2.14c3.36-0.44,6.91-1.19,10.19,0.12c1.53,0.38,3.46,1.53,4.73-0.02c5.1-4.58,10.46-8.83,15.99-12.88
	c-2.67-3.32-4.44-7.54-7.86-10.12C322.42,884.93,311.1,886.71,300.52,889.2 M244.16,1215.52c0.23,1.25,0.47,2.51,0.72,3.79
	c1.51-0.5,3.02-0.99,4.53-1.47c-0.08,1.95-0.16,3.9-0.14,5.89c3.3-2.79,0.48-7.08-0.28-10.42
	C247.39,1214.06,245.78,1214.8,244.16,1215.52 M1707.62,1424.56c-2.53,3.31-4.3,7.12-6.4,10.71c-2.85,4.44-5.11,9.76-3.42,15.07
	c2.84,4.26,5.55,9.13,10.35,11.47c4.72,2.01,9.29,4.5,14.28,5.82c6.67,2.07,13.67-0.57,19.62-3.6c5.24-2.63,10.98-3.88,16.69-5.02
	c-10.05-10.23-20.87-19.96-28.38-32.34c-0.99-1.01-1.28-3.28-2.94-3.16c-4.35,3.47-9.32,6.02-13.59,9.6
	c1.41-4.05,4.83-6.72,7.66-9.74c1.34-1.1,0.71-2.89,0.78-4.33C1717.12,1419.87,1711.83,1421.39,1707.62,1424.56 M1764.07,1463.11
	c-1.48,3.59-3.12,7.15-4.09,10.93c0.04,2.02,0.72,3.96,1.16,5.95c9.12,4.83,19.66,3.92,29.56,2.85
	C1781.9,1476.16,1772.32,1470.51,1764.07,1463.11 M960.3,1464.83c-4.05,7.3-8.73,14.21-13.23,21.24c-0.6,1.2-1.8,2.38-1.46,3.87
	c0.85,4.22,2.75,8.25,2.85,12.64c-2.13-2.29-3.83-4.91-5.85-7.27c-1.97,0.72-2.65,2.98-3.75,4.59c-3.91,7.35-8.82,14.12-12.96,21.33
	c-0.98,1.25,0.63,2.58,1.08,3.76c5.44,8.48,10.62,17.37,13.08,27.23c-4.68-3.4-7.87-8.31-11.97-12.31c-2.78-2.7-5.62-5.32-8.3-8.1
	c-3.4,4.1-5.7,8.94-8.55,13.42c-1.38,2.51-3.15,4.91-3.83,7.74c0.9,2.99,2.63,5.64,4.37,8.22c5.55,8.19,11.27,16.28,16.12,24.93
	c4.76,8.02,8.85,16.62,10.5,25.87c6.18-6.02,12.06-12.33,18.15-18.44c4.38-4.33,7.93-9.39,11.93-14.05
	c6.93-8.42,13.87-16.83,20.81-25.24c1-1.34,2.29-2.65,2.41-4.4c0.69-4.9,0.74-9.87,0.95-14.79c0.32-3.59-1.38-6.87-2.63-10.09
	c-3.15-7.55-5.93-15.25-9.36-22.67c-3.39-7.43-5.95-15.2-9.51-22.54C967.88,1474.55,963.83,1469.87,960.3,1464.83 M287.42,1472.19
	c-1.29,3.35-3.04,6.49-4.73,9.66c5.86-3.57,13.16-4.17,18.47-8.7c2.76-2.09,6.06-3.2,9.15-4.67
	C302.46,1468.04,295.09,1471.14,287.42,1472.19 M894.39,1575.99c-1.9,3.36-4.48,6.4-5.8,10.06c0.67,9.05,5.48,16.99,9.39,24.95
	c4.94,9.22,9.09,18.83,13.31,28.4c7.16-6.93,14.18-14,21.08-21.17c2.47-2.18-1.05-4.55-2.11-6.47c-8.19-11.9-17.43-23.18-28.4-32.62
	C899.77,1577.28,897.13,1576.28,894.39,1575.99 M864.11,1624.56c-2.59,2.63-5.08,5.49-6.66,8.85c-0.72,8.72,3.15,16.85,5.07,25.18
	c0.66,2.23,0.93,4.77,2.6,6.57c3.61,0.28,7.83,1.43,10.92-1.09c5.16-3.57,10.32-7.15,15.33-10.93
	c-5.39-7.11-10.01-14.85-16.35-21.17C871.92,1628.83,868.47,1625.71,864.11,1624.56 M833.86,1656.88c-4,5.09-4.04,12.11-8.47,16.95
	c6.95,2.01,12.79-3.19,18.25-6.63C841.01,1663.2,838.06,1659.32,833.86,1656.88 M1087.61,1795.7c-3.34,1.7-5.25,5.29-7.91,7.87
	c6.4-2.47,13.2-3.56,20.02-4.06c1.72-2.39,3.52-4.71,5.35-7.01C1099.3,1793.82,1093.45,1794.79,1087.61,1795.7z"/>
<path stroke="#000000" stroke-width="0.0938" d="M132.21,731.37c1.63-0.5,2.18,0.06,1.66,1.68
	C132.23,733.55,131.68,732.99,132.21,731.37z"/>
</svg>
